<svg width="800" height="370" viewBox="0 0 800 370" xmlns="http://www.w3.org/2000/svg" xmlns:xlink="http://www.w3.org/1999/xlink" xml:space="preserve" overflow="hidden"><g id="Слой_4"><g><g><path d="M461.089 321.624 238.049 321.624 238.049 98.4385 240.049 98.4385 240.049 319.624 461.089 319.624Z" fill="#636F80"/></g><g><path d="M231.071 100.773 239.049 86.9574 247.026 100.773Z" fill="#636F80"/></g><g><path d="M458.755 328.602 472.57 320.624 458.755 312.647Z" fill="#636F80"/></g></g><g><g><path d="M203.681 88.6902 198.696 79.6086 202.392 79.6086 204.454 83.763C204.913 84.6211 205.314 85.5098 205.887 86.6276L206.001 86.6276C206.46 85.5098 206.832 84.6211 207.262 83.763L209.238 79.6086 212.762 79.6086 207.777 88.8328 213.106 98.3434 209.41 98.3434 207.118 93.9318C206.631 92.9578 206.173 92.0132 205.6 90.8673L205.486 90.8673C204.999 92.0132 204.569 92.9578 204.111 93.9318L201.876 98.3434 198.353 98.3434 203.681 88.6902Z"/></g><g><path d="M216.089 83.1061C217.951 82.3893 219.011 81.0716 218.983 79.6393 218.897 79.6393 218.811 79.6393 218.725 79.6393 217.608 79.6393 216.605 78.8945 216.605 77.606 216.605 76.3736 217.608 75.5715 218.811 75.5715 220.358 75.5715 221.274 76.8319 221.274 78.9517 221.274 81.7591 219.642 83.9362 216.806 84.9102L216.089 83.1061Z"/><path d="M223.969 83.1061C225.831 82.3893 226.89 81.0716 226.862 79.6393 226.776 79.6393 226.69 79.6393 226.604 79.6393 225.487 79.6393 224.484 78.8945 224.484 77.606 224.484 76.3736 225.487 75.5715 226.69 75.5715 228.237 75.5715 229.154 76.8319 229.154 78.9517 229.154 81.7591 227.521 83.9362 224.685 84.9102L223.969 83.1061Z"/></g></g><g><g><path d="M475.678 340.78 470.694 331.699 474.389 331.699 476.452 335.853C476.91 336.711 477.311 337.6 477.884 338.718L477.998 338.718C478.457 337.6 478.829 336.711 479.259 335.853L481.235 331.699 484.759 331.699 479.775 340.923 485.103 350.433 481.407 350.433 479.116 346.022C478.629 345.048 478.17 344.103 477.597 342.957L477.483 342.957C476.996 344.103 476.566 345.048 476.108 346.022L473.873 350.433 470.35 350.433 475.678 340.78Z"/></g><g><path d="M488.087 335.196C489.949 334.479 491.009 333.162 490.98 331.729 490.894 331.729 490.808 331.729 490.722 331.729 489.605 331.729 488.602 330.985 488.602 329.696 488.602 328.464 489.605 327.662 490.808 327.662 492.355 327.662 493.272 328.922 493.272 331.042 493.272 333.849 491.639 336.026 488.803 337L488.087 335.196Z"/></g></g><g><path d="M272.463 38.5469C272.463 34.7656 274.534 32.4795 277.505 32.4795 280.476 32.4795 282.564 34.7842 282.564 38.5469 282.564 42.3457 280.476 44.7227 277.505 44.7227 274.534 44.7227 272.463 42.3457 272.463 38.5469ZM280.998 38.5469C280.998 35.6123 279.612 33.7939 277.505 33.7939 275.398 33.7939 274.012 35.6123 274.012 38.5469 274.012 41.5 275.398 43.4082 277.505 43.4082 279.612 43.4082 280.998 41.5 280.998 38.5469Z" fill="#333333"/><path d="M284.955 35.7559 291.959 35.7559 291.959 44.5068 290.483 44.5068 290.483 36.9629 286.432 36.9629 286.432 44.5068 284.955 44.5068 284.955 35.7559Z" fill="#333333"/><path d="M296.836 36.9629 293.901 36.9629 293.901 35.7559 301.247 35.7559 301.247 36.9629 298.312 36.9629 298.312 44.5068 296.836 44.5068 296.836 36.9629Z" fill="#333333"/><path d="M303.189 35.7559 304.629 35.7559 304.629 39.3936C304.629 40.3301 304.557 41.5 304.485 42.6162L304.557 42.6162C304.881 42.0762 305.404 41.2842 305.71 40.7441L309.023 35.7559 310.409 35.7559 310.409 44.5068 308.969 44.5068 308.969 40.8701C308.969 39.9336 309.041 38.7627 309.113 37.6289L309.041 37.6289C308.717 38.1689 308.194 38.9795 307.888 39.501L304.557 44.5068 303.189 44.5068 303.189 35.7559Z" fill="#333333"/><path d="M313.359 35.7559 315.069 35.7559 316.78 39.8613C317.05 40.582 317.32 41.2842 317.572 41.9863L317.644 41.9863C317.914 41.2842 318.202 40.582 318.436 39.8613L320.111 35.7559 321.803 35.7559 321.803 44.5068 320.453 44.5068 320.453 40.582C320.453 39.8076 320.561 38.457 320.633 37.5566L320.561 37.5566C320.309 38.2412 320.002 38.9795 319.75 39.627L318.094 43.6787 317.104 43.6787 315.411 39.627C315.159 38.9795 314.853 38.2412 314.601 37.5566L314.529 37.5566C314.583 38.457 314.691 39.8076 314.691 40.582L314.691 44.5068 313.359 44.5068 313.359 35.7559Z" fill="#333333"/><path d="M324.212 42.2383C324.212 40.3301 325.851 39.375 329.578 38.9609 329.578 37.8447 329.218 36.7646 327.778 36.7646 326.769 36.7646 325.851 37.2324 325.167 37.7012L324.591 36.6748C325.401 36.1523 326.625 35.54 328.03 35.54 330.172 35.54 331.073 36.9629 331.073 39.1416L331.073 44.5068 329.848 44.5068 329.722 43.4629 329.668 43.4629C328.84 44.1465 327.867 44.7227 326.769 44.7227 325.311 44.7227 324.212 43.8047 324.212 42.2383ZM329.578 42.3643 329.578 39.9336C326.661 40.2939 325.653 41.0137 325.653 42.1299 325.653 43.1201 326.337 43.5342 327.201 43.5342 328.048 43.5342 328.732 43.1201 329.578 42.3643Z" fill="#333333"/><path d="M332.528 44.5791 332.816 43.2109C332.924 43.2461 333.05 43.2822 333.212 43.2822 333.824 43.2822 334.221 42.7246 334.383 41.4277 334.617 39.5371 334.833 37.6465 335.049 35.7559L340.433 35.7559 340.433 44.5068 338.938 44.5068 338.938 36.9629 336.219 36.9629C336.039 38.5654 335.841 40.2031 335.643 41.8057 335.391 43.751 334.617 44.7227 333.321 44.7227 332.996 44.7227 332.78 44.6689 332.528 44.5791Z" fill="#333333"/><path d="M343.383 35.7559 344.859 35.7559 344.859 38.9795 346.515 38.9795C348.586 38.9795 349.99 39.8076 349.99 41.7158 349.99 43.6602 348.586 44.5068 346.515 44.5068L343.383 44.5068 343.383 35.7559ZM346.353 43.3184C347.83 43.3184 348.532 42.8145 348.532 41.7158 348.532 40.6172 347.83 40.1318 346.353 40.1318L344.859 40.1318 344.859 43.3184 346.353 43.3184Z" fill="#333333"/><path d="M352.22 35.7559 353.697 35.7559 353.697 39.3037 357.91 39.3037 357.91 35.7559 359.386 35.7559 359.386 44.5068 357.91 44.5068 357.91 40.6172 353.697 40.6172 353.697 44.5068 352.22 44.5068 352.22 35.7559Z" fill="#333333"/><path d="M361.796 42.2383C361.796 40.3301 363.435 39.375 367.162 38.9609 367.162 37.8447 366.802 36.7646 365.361 36.7646 364.353 36.7646 363.435 37.2324 362.75 37.7012L362.174 36.6748C362.985 36.1523 364.209 35.54 365.613 35.54 367.756 35.54 368.656 36.9629 368.656 39.1416L368.656 44.5068 367.432 44.5068 367.306 43.4629 367.252 43.4629C366.424 44.1465 365.451 44.7227 364.353 44.7227 362.895 44.7227 361.796 43.8047 361.796 42.2383ZM367.162 42.3643 367.162 39.9336C364.245 40.2939 363.237 41.0137 363.237 42.1299 363.237 43.1201 363.921 43.5342 364.785 43.5342 365.631 43.5342 366.315 43.1201 367.162 42.3643Z" fill="#333333"/><path d="M376.234 41.0498 374.613 41.0498 374.595 41.0498 372.183 44.5068 370.508 44.5068 373.173 40.8516C372.056 40.5098 371.174 39.7354 371.174 38.3486 371.174 36.4229 372.651 35.7559 374.613 35.7559L377.71 35.7559 377.71 44.5068 376.234 44.5068 376.234 41.0498ZM376.234 39.9697 376.234 36.9082 374.865 36.9082C373.497 36.9082 372.669 37.3584 372.669 38.3848 372.669 39.4111 373.497 39.9697 374.865 39.9697L376.234 39.9697Z" fill="#333333"/><path d="M273.004 57.3555 278.459 57.3555 278.459 58.5625 274.48 58.5625 274.48 66.1064 273.004 66.1064 273.004 57.3555Z" fill="#333333"/><path d="M280.402 57.3555 281.842 57.3555 281.842 60.9932C281.842 61.9297 281.77 63.0996 281.698 64.2158L281.77 64.2158C282.094 63.6758 282.616 62.8838 282.922 62.3438L286.235 57.3555 287.622 57.3555 287.622 66.1064 286.181 66.1064 286.181 62.4697C286.181 61.5332 286.253 60.3623 286.325 59.2285L286.253 59.2285C285.929 59.7686 285.407 60.5791 285.101 61.1006L281.77 66.1064 280.402 66.1064 280.402 57.3555Z" fill="#333333"/><path d="M290.571 57.3555 297.575 57.3555 297.575 66.1064 296.099 66.1064 296.099 58.5625 292.048 58.5625 292.048 66.1064 290.571 66.1064 290.571 57.3555Z" fill="#333333"/><path d="M299.877 61.749C299.877 58.8867 301.803 57.1396 303.802 57.1396 306.035 57.1396 307.295 58.7422 307.295 61.2451 307.295 61.5508 307.277 61.875 307.241 62.0908L301.335 62.0908C301.443 63.9453 302.578 65.1338 304.252 65.1338 305.08 65.1338 305.782 64.8643 306.431 64.4502L306.953 65.4219C306.197 65.9082 305.26 66.3223 304.072 66.3223 301.731 66.3223 299.877 64.6123 299.877 61.749ZM305.999 61.0293C305.999 59.2646 305.206 58.3105 303.838 58.3105 302.614 58.3105 301.497 59.3008 301.317 61.0293L305.999 61.0293Z" fill="#333333"/><path d="M309.453 57.3555 310.677 57.3555 310.803 58.3643 310.857 58.3643C311.649 57.6982 312.622 57.1396 313.648 57.1396 315.899 57.1396 317.105 58.8867 317.105 61.6055 317.105 64.5762 315.323 66.3223 313.324 66.3223 312.514 66.3223 311.703 65.9443 310.893 65.3145L310.929 66.8447 310.929 69.7979 309.453 69.7979 309.453 57.3555ZM315.574 61.6055C315.574 59.6787 314.927 58.3818 313.27 58.3818 312.532 58.3818 311.793 58.7959 310.929 59.5703L310.929 64.1621C311.721 64.8281 312.496 65.0801 313.072 65.0801 314.512 65.0801 315.574 63.7656 315.574 61.6055Z" fill="#333333"/><path d="M319.443 57.3555 326.447 57.3555 326.447 66.1064 324.97 66.1064 324.97 58.5625 320.919 58.5625 320.919 66.1064 319.443 66.1064 319.443 57.3555Z" fill="#333333"/><path d="M328.1 66.1787 328.388 64.8105C328.496 64.8457 328.622 64.8818 328.784 64.8818 329.396 64.8818 329.792 64.3242 329.955 63.0273 330.189 61.1367 330.405 59.2461 330.621 57.3555L336.004 57.3555 336.004 66.1064 334.51 66.1064 334.51 58.5625 331.791 58.5625C331.611 60.165 331.413 61.8027 331.215 63.4053 330.963 65.3506 330.189 66.3223 328.892 66.3223 328.568 66.3223 328.352 66.2686 328.1 66.1787Z" fill="#333333"/><path d="M338.306 61.749C338.306 58.8145 340.215 57.1396 342.357 57.1396 344.5 57.1396 346.408 58.8145 346.408 61.749 346.408 64.6484 344.5 66.3223 342.357 66.3223 340.215 66.3223 338.306 64.6484 338.306 61.749ZM344.878 61.749C344.878 59.7324 343.87 58.3643 342.357 58.3643 340.863 58.3643 339.836 59.7324 339.836 61.749 339.836 63.748 340.863 65.0977 342.357 65.0977 343.87 65.0977 344.878 63.748 344.878 61.749Z" fill="#333333"/><path d="M348.062 61.749C348.062 58.8145 350.024 57.1396 352.275 57.1396 353.427 57.1396 354.22 57.6074 354.832 58.166L354.076 59.1387C353.572 58.6885 353.031 58.3643 352.329 58.3643 350.745 58.3643 349.592 59.7324 349.592 61.749 349.592 63.748 350.691 65.0977 352.293 65.0977 353.103 65.0977 353.806 64.7021 354.346 64.2158L354.994 65.2061C354.202 65.9082 353.211 66.3223 352.167 66.3223 349.844 66.3223 348.062 64.6484 348.062 61.749Z" fill="#333333"/><path d="M356.918 57.3555 358.395 57.3555 358.395 60.957 360.087 60.957 360.951 59.0127C361.617 57.4814 362.302 57.1396 363.256 57.1396 363.436 57.1396 363.634 57.1758 363.76 57.2295L363.508 58.6162C363.4 58.5801 363.346 58.5801 363.22 58.5801 362.752 58.5801 362.392 58.7422 361.942 59.7686L361.203 61.4971 364.174 66.1064 362.554 66.1064 360.123 62.1631 358.395 62.1631 358.395 66.1064 356.918 66.1064 356.918 57.3555Z" fill="#333333"/><path d="M364.928 61.749C364.928 58.8145 366.836 57.1396 368.979 57.1396 371.122 57.1396 373.03 58.8145 373.03 61.749 373.03 64.6484 371.122 66.3223 368.979 66.3223 366.836 66.3223 364.928 64.6484 364.928 61.749ZM371.5 61.749C371.5 59.7324 370.491 58.3643 368.979 58.3643 367.485 58.3643 366.458 59.7324 366.458 61.749 366.458 63.748 367.485 65.0977 368.979 65.0977 370.491 65.0977 371.5 63.748 371.5 61.749Z" fill="#333333"/><path d="M374.684 61.749C374.684 58.8145 376.646 57.1396 378.897 57.1396 380.049 57.1396 380.842 57.6074 381.454 58.166L380.698 59.1387C380.193 58.6885 379.653 58.3643 378.951 58.3643 377.366 58.3643 376.214 59.7324 376.214 61.749 376.214 63.748 377.312 65.0977 378.915 65.0977 379.725 65.0977 380.427 64.7021 380.968 64.2158L381.616 65.2061C380.823 65.9082 379.833 66.3223 378.789 66.3223 376.466 66.3223 374.684 64.6484 374.684 61.749Z" fill="#333333"/><path d="M385.287 58.5625 382.352 58.5625 382.352 57.3555 389.698 57.3555 389.698 58.5625 386.763 58.5625 386.763 66.1064 385.287 66.1064 385.287 58.5625Z" fill="#333333"/><path d="M391.64 57.3555 393.116 57.3555 393.116 60.5791 394.773 60.5791C396.843 60.5791 398.248 61.4072 398.248 63.3154 398.248 65.2598 396.843 66.1064 394.773 66.1064L391.64 66.1064 391.64 57.3555ZM394.611 64.918C396.087 64.918 396.789 64.4141 396.789 63.3154 396.789 62.2168 396.087 61.7314 394.611 61.7314L393.116 61.7314 393.116 64.918 394.611 64.918Z" fill="#333333"/></g><g><path d="M458.018 257.695 459.818 257.695 462.087 263.997C462.375 264.808 462.645 265.653 462.933 266.464L463.005 266.464C463.293 265.653 463.528 264.808 463.816 263.997L466.048 257.695 467.867 257.695 467.867 269.507 466.462 269.507 466.462 263.007C466.462 261.963 466.588 260.559 466.661 259.514L466.588 259.514 465.652 262.196 463.419 268.318 462.429 268.318 460.197 262.196 459.26 259.514 459.188 259.514C459.26 260.559 459.368 261.963 459.368 263.007L459.368 269.507 458.018 269.507 458.018 257.695Z" fill="#333333"/><path d="M470.42 267.238C470.42 265.33 472.058 264.375 475.785 263.961 475.785 262.845 475.425 261.765 473.985 261.765 472.977 261.765 472.058 262.232 471.374 262.701L470.798 261.675C471.608 261.152 472.833 260.54 474.237 260.54 476.379 260.54 477.28 261.963 477.28 264.142L477.28 269.507 476.055 269.507 475.929 268.463 475.875 268.463C475.047 269.146 474.075 269.723 472.977 269.723 471.518 269.723 470.42 268.805 470.42 267.238ZM475.785 267.364 475.785 264.934C472.868 265.294 471.86 266.014 471.86 267.13 471.86 268.12 472.544 268.534 473.409 268.534 474.255 268.534 474.939 268.12 475.785 267.364Z" fill="#333333"/><path d="M480.032 260.756 481.508 260.756 481.508 264.357 483.201 264.357 484.065 262.413C484.731 260.882 485.416 260.54 486.37 260.54 486.55 260.54 486.748 260.576 486.874 260.63L486.622 262.017C486.514 261.98 486.46 261.98 486.334 261.98 485.866 261.98 485.505 262.143 485.055 263.169L484.317 264.897 487.288 269.507 485.667 269.507 483.237 265.563 481.508 265.563 481.508 269.507 480.032 269.507 480.032 260.756Z" fill="#333333"/><path d="M488.042 265.149C488.042 262.215 490.004 260.54 492.255 260.54 493.407 260.54 494.199 261.008 494.812 261.566L494.055 262.539C493.551 262.089 493.011 261.765 492.309 261.765 490.724 261.765 489.572 263.133 489.572 265.149 489.572 267.148 490.67 268.498 492.273 268.498 493.083 268.498 493.785 268.103 494.325 267.616L494.973 268.606C494.181 269.309 493.191 269.723 492.146 269.723 489.824 269.723 488.042 268.049 488.042 265.149Z" fill="#333333"/><path d="M496.897 260.756 498.338 260.756 498.338 264.394C498.338 265.33 498.266 266.5 498.194 267.616L498.266 267.616C498.59 267.076 499.112 266.284 499.418 265.744L502.731 260.756 504.118 260.756 504.118 269.507 502.677 269.507 502.677 265.87C502.677 264.934 502.749 263.763 502.821 262.629L502.749 262.629C502.425 263.169 501.903 263.979 501.597 264.501L498.266 269.507 496.897 269.507 496.897 260.756Z" fill="#333333"/><path d="M507.067 260.756 508.778 260.756 510.488 264.861C510.758 265.582 511.028 266.284 511.281 266.986L511.353 266.986C511.623 266.284 511.911 265.582 512.145 264.861L513.819 260.756 515.512 260.756 515.512 269.507 514.161 269.507 514.161 265.582C514.161 264.808 514.27 263.457 514.341 262.557L514.27 262.557C514.017 263.241 513.711 263.979 513.459 264.627L511.803 268.679 510.812 268.679 509.12 264.627C508.868 263.979 508.562 263.241 508.31 262.557L508.238 262.557C508.292 263.457 508.4 264.808 508.4 265.582L508.4 269.507 507.067 269.507 507.067 260.756Z" fill="#333333"/><path d="M517.921 267.238C517.921 265.33 519.559 264.375 523.287 263.961 523.287 262.845 522.926 261.765 521.486 261.765 520.478 261.765 519.559 262.232 518.875 262.701L518.299 261.675C519.109 261.152 520.333 260.54 521.738 260.54 523.881 260.54 524.781 261.963 524.781 264.142L524.781 269.507 523.557 269.507 523.431 268.463 523.376 268.463C522.548 269.146 521.576 269.723 520.478 269.723 519.019 269.723 517.921 268.805 517.921 267.238ZM523.287 267.364 523.287 264.934C520.37 265.294 519.361 266.014 519.361 267.13 519.361 268.12 520.045 268.534 520.91 268.534 521.756 268.534 522.44 268.12 523.287 267.364Z" fill="#333333"/><path d="M526.237 269.579 526.525 268.211C526.633 268.246 526.759 268.282 526.921 268.282 527.533 268.282 527.929 267.725 528.091 266.428 528.325 264.537 528.542 262.646 528.757 260.756L534.141 260.756 534.141 269.507 532.646 269.507 532.646 261.963 529.928 261.963C529.748 263.565 529.55 265.203 529.352 266.806 529.1 268.751 528.325 269.723 527.029 269.723 526.705 269.723 526.489 269.669 526.237 269.579Z" fill="#333333"/><path d="M537.091 260.756 538.567 260.756 538.567 263.979 540.224 263.979C542.294 263.979 543.699 264.808 543.699 266.716 543.699 268.66 542.294 269.507 540.224 269.507L537.091 269.507 537.091 260.756ZM540.062 268.318C541.538 268.318 542.24 267.814 542.24 266.716 542.24 265.617 541.538 265.132 540.062 265.132L538.567 265.132 538.567 268.318 540.062 268.318Z" fill="#333333"/><path d="M545.929 260.756 547.405 260.756 547.405 264.304 551.619 264.304 551.619 260.756 553.095 260.756 553.095 269.507 551.619 269.507 551.619 265.617 547.405 265.617 547.405 269.507 545.929 269.507 545.929 260.756Z" fill="#333333"/><path d="M555.396 265.149C555.396 262.215 557.305 260.54 559.448 260.54 561.59 260.54 563.499 262.215 563.499 265.149 563.499 268.049 561.59 269.723 559.448 269.723 557.305 269.723 555.396 268.049 555.396 265.149ZM561.969 265.149C561.969 263.133 560.96 261.765 559.448 261.765 557.953 261.765 556.927 263.133 556.927 265.149 556.927 267.148 557.953 268.498 559.448 268.498 560.96 268.498 561.969 267.148 561.969 265.149Z" fill="#333333"/><path d="M565.152 265.149C565.152 262.287 567.079 260.54 569.078 260.54 571.31 260.54 572.571 262.143 572.571 264.646 572.571 264.951 572.553 265.275 572.517 265.491L566.611 265.491C566.719 267.346 567.853 268.534 569.528 268.534 570.356 268.534 571.058 268.265 571.707 267.851L572.229 268.822C571.472 269.309 570.536 269.723 569.348 269.723 567.007 269.723 565.152 268.013 565.152 265.149ZM571.274 264.43C571.274 262.665 570.482 261.711 569.114 261.711 567.889 261.711 566.773 262.701 566.593 264.43L571.274 264.43Z" fill="#333333"/><path d="M457.874 282.355 459.098 282.355 459.224 283.364 459.278 283.364C460.071 282.698 461.043 282.14 462.069 282.14 464.32 282.14 465.526 283.887 465.526 286.605 465.526 289.576 463.744 291.322 461.745 291.322 460.935 291.322 460.125 290.944 459.314 290.314L459.35 291.845 459.35 294.798 457.874 294.798 457.874 282.355ZM463.996 286.605C463.996 284.679 463.348 283.382 461.691 283.382 460.953 283.382 460.215 283.796 459.35 284.57L459.35 289.162C460.143 289.828 460.917 290.08 461.493 290.08 462.933 290.08 463.996 288.766 463.996 286.605Z" fill="#333333"/><path d="M467.072 288.838C467.072 286.93 468.71 285.975 472.437 285.561 472.437 284.444 472.077 283.364 470.637 283.364 469.628 283.364 468.71 283.832 468.026 284.301L467.45 283.274C468.26 282.752 469.484 282.14 470.889 282.14 473.031 282.14 473.932 283.562 473.932 285.741L473.932 291.106 472.707 291.106 472.581 290.062 472.527 290.062C471.699 290.746 470.727 291.322 469.628 291.322 468.17 291.322 467.072 290.404 467.072 288.838ZM472.437 288.964 472.437 286.533C469.52 286.894 468.512 287.613 468.512 288.729 468.512 289.72 469.196 290.134 470.061 290.134 470.907 290.134 471.591 289.72 472.437 288.964Z" fill="#333333"/><path d="M476.036 286.749C476.036 283.814 477.998 282.14 480.249 282.14 481.401 282.14 482.193 282.607 482.806 283.166L482.049 284.139C481.545 283.688 481.005 283.364 480.303 283.364 478.718 283.364 477.566 284.732 477.566 286.749 477.566 288.748 478.664 290.098 480.267 290.098 481.077 290.098 481.779 289.702 482.319 289.216L482.968 290.206C482.175 290.908 481.185 291.322 480.141 291.322 477.818 291.322 476.036 289.648 476.036 286.749Z" fill="#333333"/><path d="M483.865 286.749C483.865 283.814 485.828 282.14 488.079 282.14 489.231 282.14 490.023 282.607 490.635 283.166L489.879 284.139C489.375 283.688 488.835 283.364 488.133 283.364 486.548 283.364 485.396 284.732 485.396 286.749 485.396 288.748 486.494 290.098 488.097 290.098 488.907 290.098 489.609 289.702 490.149 289.216L490.797 290.206C490.005 290.908 489.015 291.322 487.971 291.322 485.648 291.322 483.865 289.648 483.865 286.749Z" fill="#333333"/><path d="M494.469 283.562 491.534 283.562 491.534 282.355 498.88 282.355 498.88 283.562 495.945 283.562 495.945 291.106 494.469 291.106 494.469 283.562Z" fill="#333333"/><path d="M499.921 286.749C499.921 283.814 501.83 282.14 503.973 282.14 506.115 282.14 508.024 283.814 508.024 286.749 508.024 289.648 506.115 291.322 503.973 291.322 501.83 291.322 499.921 289.648 499.921 286.749ZM506.493 286.749C506.493 284.732 505.485 283.364 503.973 283.364 502.478 283.364 501.452 284.732 501.452 286.749 501.452 288.748 502.478 290.098 503.973 290.098 505.485 290.098 506.493 288.748 506.493 286.749Z" fill="#333333"/><path d="M515.079 287.649 513.458 287.649 513.44 287.649 511.028 291.106 509.353 291.106 512.018 287.451C510.902 287.109 510.02 286.335 510.02 284.948 510.02 283.022 511.496 282.355 513.458 282.355L516.555 282.355 516.555 291.106 515.079 291.106 515.079 287.649ZM515.079 286.569 515.079 283.508 513.71 283.508C512.342 283.508 511.514 283.958 511.514 284.984 511.514 286.011 512.342 286.569 513.71 286.569L515.079 286.569Z" fill="#333333"/><path d="M519.505 282.355 520.982 282.355 520.982 285.903 525.195 285.903 525.195 282.355 526.672 282.355 526.672 291.106 525.195 291.106 525.195 287.217 520.982 287.217 520.982 291.106 519.505 291.106 519.505 282.355Z" fill="#333333"/><path d="M529.622 282.355 531.062 282.355 531.062 285.993C531.062 286.93 530.99 288.1 530.918 289.216L530.99 289.216C531.314 288.676 531.836 287.884 532.142 287.344L535.455 282.355 536.842 282.355 536.842 291.106 535.401 291.106 535.401 287.47C535.401 286.533 535.473 285.362 535.545 284.229L535.473 284.229C535.149 284.769 534.627 285.579 534.321 286.101L530.99 291.106 529.622 291.106 529.622 282.355Z" fill="#333333"/><path d="M539.143 286.749C539.143 283.887 541.07 282.14 543.068 282.14 545.301 282.14 546.561 283.742 546.561 286.245 546.561 286.551 546.543 286.875 546.507 287.091L540.601 287.091C540.709 288.945 541.844 290.134 543.518 290.134 544.346 290.134 545.049 289.864 545.697 289.45L546.219 290.422C545.463 290.908 544.527 291.322 543.338 291.322 540.998 291.322 539.143 289.612 539.143 286.749ZM545.265 286.029C545.265 284.265 544.473 283.311 543.104 283.311 541.88 283.311 540.763 284.301 540.583 286.029L545.265 286.029Z" fill="#333333"/></g><g><path d="M529.757 156.55C529.757 152.769 531.827 150.482 534.798 150.482 537.769 150.482 539.858 152.787 539.858 156.55 539.858 160.349 537.769 162.726 534.798 162.726 531.827 162.726 529.757 160.349 529.757 156.55ZM538.291 156.55C538.291 153.615 536.905 151.797 534.798 151.797 532.692 151.797 531.305 153.615 531.305 156.55 531.305 159.503 532.692 161.411 534.798 161.411 536.905 161.411 538.291 159.503 538.291 156.55Z" fill="#333333"/><path d="M542.249 153.759 549.253 153.759 549.253 162.51 547.776 162.51 547.776 154.966 543.725 154.966 543.725 162.51 542.249 162.51 542.249 153.759Z" fill="#333333"/><path d="M551.554 158.152C551.554 155.218 553.463 153.543 555.605 153.543 557.748 153.543 559.657 155.218 559.657 158.152 559.657 161.052 557.748 162.726 555.605 162.726 553.463 162.726 551.554 161.052 551.554 158.152ZM558.126 158.152C558.126 156.136 557.118 154.768 555.605 154.768 554.111 154.768 553.085 156.136 553.085 158.152 553.085 160.151 554.111 161.501 555.605 161.501 557.118 161.501 558.126 160.151 558.126 158.152Z" fill="#333333"/><path d="M561.958 153.759 563.183 153.759 563.309 154.768 563.363 154.768C564.155 154.102 565.127 153.543 566.154 153.543 568.404 153.543 569.611 155.29 569.611 158.009 569.611 160.979 567.828 162.726 565.83 162.726 565.019 162.726 564.209 162.348 563.399 161.718L563.435 163.248 563.435 166.201 561.958 166.201 561.958 153.759ZM568.08 158.009C568.08 156.082 567.432 154.785 565.776 154.785 565.037 154.785 564.299 155.199 563.435 155.974L563.435 160.565C564.227 161.231 565.001 161.483 565.577 161.483 567.018 161.483 568.08 160.169 568.08 158.009Z" fill="#333333"/><path d="M571.948 153.759 573.425 153.759 573.425 157.307 577.638 157.307 577.638 153.759 579.115 153.759 579.115 162.51 577.638 162.51 577.638 158.62 573.425 158.62 573.425 162.51 571.948 162.51 571.948 153.759Z" fill="#333333"/><path d="M582.064 153.759 583.541 153.759 583.541 156.982 584.783 156.982C586.854 156.982 588.258 157.811 588.258 159.719 588.258 161.663 586.854 162.51 584.783 162.51L582.064 162.51 582.064 153.759ZM584.621 161.321C586.097 161.321 586.8 160.817 586.8 159.719 586.8 158.62 586.097 158.135 584.621 158.135L583.541 158.135 583.541 161.321 584.621 161.321ZM589.771 153.759 591.247 153.759 591.247 162.51 589.771 162.51 589.771 153.759Z" fill="#333333"/><path d="M593.548 158.152C593.548 155.29 595.475 153.543 597.473 153.543 599.706 153.543 600.966 155.146 600.966 157.648 600.966 157.954 600.948 158.278 600.912 158.494L595.006 158.494C595.115 160.349 596.249 161.537 597.923 161.537 598.751 161.537 599.454 161.268 600.102 160.854L600.624 161.825C599.868 162.312 598.932 162.726 597.743 162.726 595.403 162.726 593.548 161.016 593.548 158.152ZM599.67 157.433C599.67 155.668 598.878 154.714 597.509 154.714 596.285 154.714 595.168 155.704 594.989 157.433L599.67 157.433Z" fill="#333333"/><path d="M530.297 175.358 533.664 175.358C535.573 175.358 536.887 175.989 536.887 177.573 536.887 178.546 536.329 179.176 535.428 179.446L535.428 179.5C536.419 179.734 537.265 180.347 537.265 181.606 537.265 183.335 535.825 184.109 533.808 184.109L530.297 184.109 530.297 175.358ZM533.412 179.032C534.87 179.032 535.447 178.527 535.447 177.718 535.447 176.907 534.87 176.421 533.52 176.421L531.755 176.421 531.755 179.032 533.412 179.032ZM533.646 183.047C535.086 183.047 535.789 182.489 535.789 181.517 535.789 180.635 535.032 180.094 533.556 180.094L531.755 180.094 531.755 183.047 533.646 183.047Z" fill="#333333"/><path d="M538.793 179.752C538.793 176.89 540.719 175.143 542.718 175.143 544.951 175.143 546.211 176.745 546.211 179.248 546.211 179.554 546.193 179.878 546.157 180.094L540.251 180.094C540.359 181.948 541.494 183.137 543.168 183.137 543.996 183.137 544.698 182.867 545.347 182.453L545.869 183.425C545.113 183.911 544.177 184.325 542.988 184.325 540.647 184.325 538.793 182.615 538.793 179.752ZM544.915 179.032C544.915 177.268 544.122 176.313 542.754 176.313 541.53 176.313 540.413 177.304 540.233 179.032L544.915 179.032Z" fill="#333333"/><path d="M548.369 175.358 549.845 175.358 549.845 178.96 551.538 178.96 552.402 177.016C553.068 175.484 553.752 175.143 554.707 175.143 554.887 175.143 555.085 175.179 555.211 175.232L554.959 176.619C554.851 176.583 554.797 176.583 554.671 176.583 554.202 176.583 553.843 176.745 553.392 177.771L552.654 179.5 555.625 184.109 554.004 184.109 551.574 180.166 549.845 180.166 549.845 184.109 548.369 184.109 548.369 175.358Z" fill="#333333"/><path d="M558.953 176.565 556.018 176.565 556.018 175.358 563.365 175.358 563.365 176.565 560.43 176.565 560.43 184.109 558.953 184.109 558.953 176.565Z" fill="#333333"/><path d="M564.406 179.752C564.406 176.817 566.315 175.143 568.458 175.143 570.6 175.143 572.509 176.817 572.509 179.752 572.509 182.651 570.6 184.325 568.458 184.325 566.315 184.325 564.406 182.651 564.406 179.752ZM570.978 179.752C570.978 177.735 569.97 176.367 568.458 176.367 566.963 176.367 565.937 177.735 565.937 179.752 565.937 181.751 566.963 183.101 568.458 183.101 569.97 183.101 570.978 181.751 570.978 179.752Z" fill="#333333"/><path d="M574.81 175.358 576.035 175.358 576.161 176.367 576.215 176.367C577.007 175.701 577.979 175.143 579.006 175.143 581.256 175.143 582.463 176.89 582.463 179.608 582.463 182.579 580.68 184.325 578.682 184.325 577.871 184.325 577.061 183.947 576.251 183.317L576.287 184.848 576.287 187.801 574.81 187.801 574.81 175.358ZM580.932 179.608C580.932 177.682 580.284 176.385 578.628 176.385 577.889 176.385 577.151 176.799 576.287 177.573L576.287 182.165C577.079 182.831 577.853 183.083 578.429 183.083 579.87 183.083 580.932 181.769 580.932 179.608Z" fill="#333333"/><path d="M584.8 175.358 586.277 175.358 586.277 178.582 587.519 178.582C589.59 178.582 590.994 179.41 590.994 181.318 590.994 183.263 589.59 184.109 587.519 184.109L584.8 184.109 584.8 175.358ZM587.357 182.921C588.833 182.921 589.536 182.417 589.536 181.318 589.536 180.22 588.833 179.734 587.357 179.734L586.277 179.734 586.277 182.921 587.357 182.921ZM592.507 175.358 593.983 175.358 593.983 184.109 592.507 184.109 592.507 175.358Z" fill="#333333"/></g><rect x="327.585" y="104.578" width="19.8644" height="19.8644" fill="#BAC0CF"/><rect x="364.96" y="127.078" width="19.8644" height="19.8644" fill="#BAC0CF"/><rect x="391.291" y="113.075" width="19.8644" height="19.8644" fill="#BAC0CF"/><rect x="403.305" y="137.01" width="19.8644" height="19.8644" fill="#BAC0CF"/><path d="M290.926 228.776 275.18 256.048 306.672 256.048Z" fill="#BAC0CF"/><path d="M323.465 271.109 307.719 298.382 339.21 298.382Z" fill="#BAC0CF"/><g><rect x="358.925" y="69.1421" width="1.0002" height="220.212" fill="#BAC0CF" transform="matrix(0.59662 -0.802524 0.802524 0.59662 1.13411 360.752)"/></g><g><rect x="343.065" y="96.3726" width="1.0002" height="220.212" fill="#BAC0CF" transform="matrix(0.59662 -0.802524 0.802524 0.59662 -27.1164 359.009)"/></g><g><rect x="329.099" y="122.856" width="1.0002" height="220.212" fill="#BAC0CF" transform="matrix(0.59662 -0.802524 0.802524 0.59662 -54.0037 358.483)"/></g><rect x="330.607" y="152.578" width="19.8644" height="19.8644" fill="#73B0DE"/><rect x="380.704" y="192.578" width="19.8644" height="19.8644" fill="#73B0DE"/><path d="M283.779 185.91 268.033 213.183 299.525 213.183Z" fill="#E8953F"/><g><g><path d="M307.62 198.618 307.481 197.628 308.472 197.489 308.611 198.479 307.62 198.618ZM309.601 198.342 309.462 197.352 310.453 197.213 310.591 198.203 309.601 198.342ZM311.582 198.065 311.443 197.075 312.433 196.937 312.572 197.927 311.582 198.065ZM313.562 197.788 313.424 196.798 314.415 196.66 314.552 197.65 313.562 197.788ZM315.543 197.512 315.405 196.521 316.396 196.384 316.533 197.374 315.543 197.512ZM317.524 197.235 317.385 196.245 318.376 196.106 318.514 197.097 317.524 197.235ZM319.505 196.959 319.366 195.969 320.356 195.83 320.495 196.82 319.505 196.959ZM321.486 196.683 321.347 195.692 322.337 195.554 322.476 196.544 321.486 196.683ZM323.466 196.405 323.328 195.415 324.319 195.277 324.456 196.268 323.466 196.405ZM325.447 196.129 325.309 195.139 326.299 195.001 326.437 195.991 325.447 196.129ZM327.428 195.853 327.289 194.862 328.28 194.724 328.418 195.714 327.428 195.853ZM329.409 195.576 329.27 194.586 330.26 194.447 330.399 195.438 329.409 195.576ZM331.39 195.3 331.251 194.31 332.241 194.171 332.38 195.161 331.39 195.3ZM333.37 195.022 333.232 194.032 334.223 193.895 334.36 194.885 333.37 195.022ZM335.351 194.746 335.213 193.756 336.203 193.618 336.341 194.608 335.351 194.746ZM337.332 194.47 337.193 193.479 338.184 193.341 338.322 194.331 337.332 194.47ZM339.313 194.193 339.174 193.203 340.164 193.064 340.303 194.055 339.313 194.193ZM341.293 193.917 341.155 192.927 342.145 192.788 342.284 193.778 341.293 193.917ZM343.274 193.64 343.136 192.649 344.126 192.512 344.264 193.502 343.274 193.64ZM345.255 193.363 345.117 192.373 346.107 192.235 346.245 193.226 345.255 193.363ZM347.236 193.087 347.097 192.097 348.088 191.958 348.226 192.948 347.236 193.087ZM349.217 192.811 349.078 191.82 350.068 191.682 350.207 192.672 349.217 192.811ZM351.198 192.534 351.059 191.544 352.049 191.405 352.188 192.396 351.198 192.534ZM353.178 192.257 353.04 191.267 354.031 191.129 354.168 192.119 353.178 192.257ZM355.158 191.98 355.021 190.99 356.011 190.853 356.149 191.843 355.158 191.98ZM357.14 191.704 357.001 190.714 357.991 190.575 358.13 191.565 357.14 191.704ZM359.121 191.428 358.982 190.438 359.972 190.299 360.111 191.289 359.121 191.428ZM361.101 191.151 360.963 190.161 361.953 190.022 362.092 191.013 361.101 191.151ZM363.082 190.874 362.944 189.884 363.934 189.746 364.072 190.736 363.082 190.874ZM365.062 190.598 364.925 189.607 365.915 189.47 366.053 190.46 365.062 190.598ZM367.044 190.321 366.905 189.331 367.896 189.192 368.034 190.183 367.044 190.321ZM369.024 190.045 368.886 189.055 369.876 188.916 370.015 189.906 369.024 190.045ZM371.005 189.769 370.867 188.778 371.857 188.64 371.996 189.63 371.005 189.769ZM372.986 189.491 372.848 188.501 373.838 188.363 373.976 189.354 372.986 189.491ZM374.966 189.215 374.829 188.225 375.819 188.087 375.957 189.077 374.966 189.215ZM376.948 188.938 376.809 187.948 377.799 187.81 377.938 188.8 376.948 188.938ZM378.928 188.662 378.79 187.672 379.78 187.533 379.919 188.523 378.928 188.662ZM380.909 188.386 380.771 187.396 381.761 187.257 381.9 188.247 380.909 188.386ZM382.889 188.108 382.752 187.118 383.742 186.98 383.88 187.971 382.889 188.108ZM384.87 187.832 384.733 186.842 385.723 186.704 385.861 187.694 384.87 187.832ZM386.852 187.556 386.713 186.565 387.703 186.427 387.842 187.417 386.852 187.556ZM388.832 187.279 388.694 186.289 389.684 186.15 389.823 187.141 388.832 187.279ZM390.813 187.003 390.674 186.013 391.665 185.874 391.803 186.864 390.813 187.003ZM392.793 186.726 392.656 185.735 393.646 185.598 393.784 186.588 392.793 186.726ZM394.774 186.449 394.636 185.459 395.627 185.321 395.765 186.312 394.774 186.449ZM396.755 186.173 396.617 185.183 397.607 185.044 397.746 186.034 396.755 186.173ZM398.736 185.896 398.598 184.906 399.588 184.768 399.727 185.758 398.736 185.896ZM400.717 185.62 400.578 184.63 401.569 184.491 401.708 185.481 400.717 185.62ZM402.697 185.343 402.56 184.353 403.55 184.215 403.688 185.205 402.697 185.343ZM404.678 185.066 404.54 184.076 405.531 183.938 405.668 184.929 404.678 185.066ZM406.659 184.79 406.521 183.8 407.511 183.661 407.65 184.651 406.659 184.79ZM408.64 184.514 408.501 183.523 409.492 183.385 409.631 184.375 408.64 184.514ZM410.621 184.237 410.482 183.247 411.473 183.108 411.611 184.099 410.621 184.237ZM412.601 183.96 412.464 182.97 413.454 182.832 413.592 183.822 412.601 183.96ZM414.582 183.684 414.444 182.693 415.435 182.556 415.573 183.546 414.582 183.684ZM416.563 183.407 416.425 182.417 417.415 182.278 417.554 183.269 416.563 183.407ZM418.544 183.131 418.405 182.141 419.396 182.002 419.534 182.992 418.544 183.131ZM420.525 182.854 420.386 181.864 421.376 181.726 421.515 182.716 420.525 182.854ZM422.505 182.577 422.367 181.587 423.358 181.449 423.496 182.439 422.505 182.577ZM424.486 182.301 424.348 181.311 425.339 181.173 425.476 182.163 424.486 182.301ZM426.467 182.024 426.329 181.034 427.319 180.896 427.458 181.886 426.467 182.024ZM428.448 181.748 428.309 180.758 429.3 180.619 429.438 181.609 428.448 181.748ZM430.429 181.472 430.29 180.481 431.281 180.343 431.419 181.333 430.429 181.472ZM432.409 181.194 432.271 180.204 433.262 180.066 433.399 181.057 432.409 181.194ZM434.39 180.918 434.252 179.928 435.242 179.79 435.38 180.78 434.39 180.918ZM436.371 180.642 436.232 179.651 437.223 179.513 437.362 180.503 436.371 180.642ZM438.352 180.365 438.213 179.375 439.204 179.236 439.342 180.227 438.352 180.365ZM440.333 180.089 440.194 179.099 441.184 178.96 441.323 179.95 440.333 180.089ZM442.313 179.812 442.175 178.821 443.166 178.684 443.303 179.674 442.313 179.812ZM444.294 179.535 444.156 178.545 445.146 178.407 445.284 179.397 444.294 179.535ZM446.275 179.259 446.136 178.269 447.127 178.13 447.265 179.12 446.275 179.259ZM448.256 178.982 448.117 177.992 449.107 177.854 449.246 178.844 448.256 178.982ZM450.237 178.706 450.098 177.716 451.088 177.577 451.227 178.567 450.237 178.706ZM452.217 178.429 452.079 177.438 453.07 177.301 453.207 178.291 452.217 178.429ZM454.198 178.152 454.06 177.162 455.05 177.024 455.188 178.015 454.198 178.152ZM456.179 177.876 456.04 176.886 457.031 176.747 457.169 177.737 456.179 177.876ZM458.16 177.6 458.021 176.609 459.011 176.471 459.15 177.461 458.16 177.6ZM460.14 177.323 460.002 176.333 460.992 176.194 461.131 177.185 460.14 177.323ZM462.121 177.046 461.983 176.056 462.973 175.918 463.111 176.908 462.121 177.046ZM464.102 176.77 463.964 175.779 464.954 175.642 465.092 176.632 464.102 176.77ZM466.083 176.493 465.944 175.503 466.935 175.364 467.073 176.354 466.083 176.493ZM468.064 176.217 467.925 175.227 468.915 175.088 469.054 176.078 468.064 176.217ZM470.044 175.94 469.906 174.95 470.896 174.812 471.035 175.802 470.044 175.94ZM472.025 175.663 471.887 174.673 472.877 174.535 473.015 175.525 472.025 175.663ZM474.005 175.387 473.868 174.396 474.858 174.259 474.996 175.249 474.005 175.387ZM475.987 175.11 475.848 174.12 476.838 173.981 476.977 174.972 475.987 175.11ZM477.968 174.834 477.829 173.844 478.819 173.705 478.958 174.695 477.968 174.834ZM479.948 174.558 479.81 173.567 480.8 173.429 480.939 174.419 479.948 174.558ZM481.929 174.28 481.791 173.29 482.781 173.152 482.919 174.143 481.929 174.28ZM483.909 174.004 483.772 173.014 484.762 172.876 484.9 173.866 483.909 174.004ZM485.891 173.728 485.752 172.737 486.742 172.599 486.881 173.589 485.891 173.728ZM487.871 173.451 487.733 172.461 488.723 172.322 488.862 173.312 487.871 173.451ZM489.852 173.175 489.714 172.185 490.704 172.046 490.843 173.036 489.852 173.175ZM491.833 172.897 491.695 171.907 492.685 171.77 492.823 172.76 491.833 172.897ZM493.813 172.621 493.676 171.631 494.666 171.493 494.804 172.483 493.813 172.621ZM495.795 172.345 495.656 171.354 496.646 171.216 496.785 172.206 495.795 172.345ZM497.775 172.068 497.637 171.078 498.627 170.939 498.766 171.93 497.775 172.068ZM499.756 171.792 499.617 170.802 500.608 170.663 500.747 171.653 499.756 171.792ZM501.736 171.515 501.599 170.524 502.589 170.387 502.727 171.377 501.736 171.515ZM503.717 171.238 503.58 170.248 504.57 170.11 504.708 171.101 503.717 171.238ZM505.698 170.962 505.56 169.972 506.55 169.833 506.689 170.823 505.698 170.962ZM507.679 170.686 507.541 169.695 508.531 169.557 508.67 170.547 507.679 170.686ZM509.66 170.409 509.521 169.419 510.512 169.28 510.65 170.271 509.66 170.409ZM511.64 170.132 511.503 169.142 512.493 169.004 512.631 169.994 511.64 170.132ZM513.621 169.855 513.483 168.865 514.474 168.728 514.612 169.718 513.621 169.855ZM515.602 169.579 515.464 168.589 516.454 168.45 516.593 169.44 515.602 169.579ZM517.583 169.303 517.445 168.312 518.435 168.174 518.573 169.164 517.583 169.303ZM519.564 169.026 519.425 168.036 520.416 167.897 520.554 168.888 519.564 169.026ZM521.544 168.749 521.406 167.759 522.397 167.621 522.535 168.611 521.544 168.749ZM523.525 168.473 523.387 167.482 523.535 167.462 523.673 168.452 523.525 168.473Z" fill="#525761"/></g><g><path d="M301.573 198.957C304.532 199.608 308.27 200.902 310.696 202.486L308.335 198.013 309.381 193.066C307.481 195.254 304.24 197.522 301.573 198.957Z" fill="#525761"/></g></g><g><g><path d="M414.67 197.867 414.409 196.902 415.341 196.651 415.601 197.616 414.67 197.867ZM416.567 197.355 416.306 196.391 417.272 196.13 417.532 197.095 416.567 197.355ZM418.498 196.834 418.238 195.869 419.203 195.609 419.463 196.574 418.498 196.834ZM420.429 196.313 420.168 195.349 421.134 195.088 421.394 196.053 420.429 196.313ZM422.359 195.792 422.1 194.827 423.065 194.567 423.325 195.532 422.359 195.792ZM424.291 195.271 424.03 194.307 424.996 194.046 425.256 195.011 424.291 195.271ZM426.221 194.75 425.961 193.785 426.927 193.525 427.187 194.49 426.221 194.75ZM428.153 194.229 427.892 193.265 428.857 193.004 429.118 193.969 428.153 194.229ZM430.083 193.708 429.823 192.743 430.789 192.483 431.049 193.448 430.083 193.708ZM432.015 193.188 431.754 192.223 432.719 191.962 432.98 192.927 432.015 193.188ZM433.945 192.666 433.685 191.701 434.651 191.441 434.91 192.406 433.945 192.666ZM435.876 192.146 435.616 191.181 436.581 190.92 436.842 191.885 435.876 192.146ZM437.807 191.624 437.547 190.659 438.512 190.398 438.773 191.363 437.807 191.624ZM439.738 191.104 439.478 190.139 440.443 189.878 440.704 190.843 439.738 191.104ZM441.669 190.582 441.408 189.617 442.374 189.356 442.635 190.321 441.669 190.582ZM443.6 190.062 443.339 189.097 444.305 188.836 444.566 189.801 443.6 190.062ZM445.531 189.54 445.271 188.575 446.236 188.314 446.497 189.279 445.531 189.54ZM447.462 189.02 447.201 188.055 448.167 187.794 448.427 188.759 447.462 189.02ZM449.393 188.498 449.132 187.533 450.098 187.272 450.358 188.237 449.393 188.498ZM451.324 187.978 451.063 187.013 452.029 186.752 452.29 187.717 451.324 187.978ZM453.255 187.456 452.994 186.491 453.96 186.23 454.22 187.195 453.255 187.456ZM455.186 186.936 454.925 185.971 455.891 185.71 456.151 186.675 455.186 186.936ZM457.117 186.414 456.856 185.449 457.822 185.188 458.082 186.153 457.117 186.414ZM459.048 185.894 458.787 184.929 459.752 184.668 460.013 185.633 459.048 185.894ZM460.979 185.372 460.718 184.407 461.683 184.146 461.944 185.111 460.979 185.372ZM462.91 184.852 462.649 183.887 463.614 183.626 463.875 184.591 462.91 184.852ZM464.841 184.33 464.58 183.365 465.545 183.104 465.806 184.069 464.841 184.33ZM466.771 183.81 466.511 182.845 467.476 182.584 467.737 183.549 466.771 183.81ZM468.702 183.288 468.442 182.323 469.407 182.062 469.668 183.027 468.702 183.288ZM470.633 182.768 470.373 181.803 471.338 181.542 471.599 182.507 470.633 182.768ZM472.564 182.246 472.304 181.281 473.269 181.021 473.53 181.985 472.564 182.246ZM474.495 181.726 474.235 180.761 475.2 180.5 475.461 181.465 474.495 181.726ZM476.426 181.204 476.166 180.239 477.131 179.979 477.392 180.943 476.426 181.204ZM478.357 180.684 478.096 179.719 479.062 179.458 479.323 180.423 478.357 180.684ZM480.288 180.162 480.027 179.197 480.993 178.937 481.254 179.901 480.288 180.162ZM482.219 179.641 481.959 178.676 482.924 178.416 483.184 179.381 482.219 179.641ZM484.15 179.12 483.889 178.155 484.855 177.895 485.115 178.859 484.15 179.12ZM486.081 178.599 485.821 177.634 486.786 177.374 487.046 178.339 486.081 178.599ZM488.012 178.078 487.751 177.113 488.717 176.853 488.977 177.817 488.012 178.078ZM489.942 177.557 489.683 176.592 490.648 176.332 490.908 177.297 489.942 177.557ZM491.874 177.036 491.613 176.071 492.579 175.811 492.839 176.775 491.874 177.036ZM493.804 176.515 493.544 175.55 494.51 175.29 494.77 176.255 493.804 176.515ZM495.736 175.994 495.475 175.029 496.44 174.769 496.701 175.733 495.736 175.994ZM497.666 175.473 497.406 174.508 498.372 174.248 498.632 175.213 497.666 175.473ZM499.598 174.952 499.337 173.987 500.302 173.727 500.563 174.691 499.598 174.952ZM501.528 174.431 501.268 173.466 502.234 173.206 502.493 174.171 501.528 174.431ZM503.459 173.91 503.199 172.945 504.164 172.685 504.425 173.649 503.459 173.91ZM505.39 173.389 505.13 172.424 506.096 172.164 506.355 173.129 505.39 173.389ZM507.321 172.868 507.061 171.903 508.026 171.643 508.287 172.607 507.321 172.868ZM509.252 172.347 508.992 171.382 509.958 171.122 510.217 172.087 509.252 172.347ZM511.183 171.826 510.922 170.861 511.888 170.601 512.149 171.565 511.183 171.826ZM513.114 171.305 512.854 170.34 513.819 170.08 514.079 171.045 513.114 171.305ZM515.045 170.784 514.784 169.819 515.75 169.559 516.01 170.523 515.045 170.784ZM516.976 170.263 516.716 169.298 517.681 169.038 517.941 170.003 516.976 170.263ZM518.907 169.742 518.646 168.777 519.612 168.517 519.873 169.481 518.907 169.742ZM520.837 169.221 520.578 168.256 521.543 167.996 521.803 168.961 520.837 169.221ZM522.769 168.7 522.508 167.735 523.474 167.475 523.734 168.439 522.769 168.7Z" fill="#525761"/></g><g><path d="M408.712 198.957C411.18 197.2 414.113 194.547 415.726 192.139L415.304 197.179 418.204 201.322C415.599 200.052 411.729 199.234 408.712 198.957Z" fill="#525761"/></g></g><g><g><path d="M523.588 168.457 522.588 168.425 522.621 167.425 523.62 167.457 523.588 168.457ZM521.589 168.392 520.59 168.359 520.622 167.359 521.621 167.392 521.589 168.392ZM519.59 168.327 518.59 168.294 518.623 167.294 519.623 167.327 519.59 168.327ZM517.591 168.262 516.592 168.229 516.624 167.229 517.623 167.262 517.591 168.262ZM515.592 168.196 514.593 168.164 514.625 167.164 515.624 167.196 515.592 168.196ZM513.593 168.132 512.593 168.099 512.626 167.099 513.626 167.132 513.593 168.132ZM511.594 168.066 510.595 168.034 510.627 167.034 511.626 167.066 511.594 168.066ZM509.595 168.001 508.596 167.969 508.628 166.969 509.627 167.001 509.595 168.001ZM507.596 167.936 506.597 167.903 506.629 166.903 507.629 166.936 507.596 167.936ZM505.597 167.871 504.597 167.838 504.631 166.838 505.63 166.871 505.597 167.871ZM503.598 167.806 502.599 167.773 502.631 166.773 503.631 166.806 503.598 167.806ZM501.6 167.74 500.6 167.708 500.632 166.708 501.632 166.74 501.6 167.74ZM499.6 167.676 498.601 167.643 498.634 166.643 499.633 166.676 499.6 167.676ZM497.602 167.61 496.602 167.578 496.635 166.578 497.634 166.61 497.602 167.61ZM495.603 167.545 494.603 167.513 494.635 166.513 495.635 166.545 495.603 167.545ZM493.603 167.48 492.604 167.447 492.637 166.447 493.636 166.48 493.603 167.48ZM491.605 167.415 490.605 167.383 490.638 166.383 491.637 166.415 491.605 167.415ZM489.606 167.35 488.606 167.317 488.639 166.317 489.638 166.35 489.606 167.35ZM487.606 167.285 486.607 167.252 486.64 166.252 487.64 166.285 487.606 167.285ZM485.608 167.22 484.609 167.188 484.641 166.188 485.64 166.22 485.608 167.22ZM483.609 167.154 482.61 167.122 482.642 166.122 483.641 166.154 483.609 167.154ZM481.61 167.09 480.61 167.057 480.643 166.057 481.643 166.09 481.61 167.09ZM479.611 167.024 478.611 166.991 478.645 165.991 479.644 166.024 479.611 167.024ZM477.612 166.959 476.613 166.927 476.645 165.927 477.645 165.959 477.612 166.959ZM475.613 166.894 474.614 166.861 474.646 165.861 475.646 165.894 475.613 166.894ZM473.614 166.829 472.615 166.796 472.648 165.796 473.647 165.829 473.614 166.829ZM471.615 166.764 470.616 166.731 470.648 165.731 471.648 165.764 471.615 166.764ZM469.616 166.698 468.617 166.666 468.649 165.666 469.649 165.698 469.616 166.698ZM467.617 166.634 466.618 166.601 466.651 165.601 467.65 165.634 467.617 166.634ZM465.619 166.568 464.619 166.536 464.651 165.536 465.651 165.568 465.619 166.568ZM463.62 166.503 462.62 166.471 462.653 165.471 463.652 165.503 463.62 166.503ZM461.62 166.438 460.621 166.405 460.654 165.405 461.654 165.438 461.62 166.438ZM459.622 166.373 458.622 166.341 458.655 165.341 459.654 165.373 459.622 166.373ZM457.623 166.308 456.624 166.275 456.656 165.275 457.655 165.308 457.623 166.308ZM455.624 166.243 454.624 166.21 454.657 165.21 455.657 165.243 455.624 166.243ZM453.625 166.178 452.625 166.146 452.658 165.146 453.657 165.178 453.625 166.178ZM451.626 166.112 450.627 166.08 450.659 165.08 451.658 165.112 451.626 166.112ZM449.627 166.048 448.627 166.015 448.66 165.015 449.66 165.048 449.627 166.048ZM447.628 165.982 446.628 165.949 446.661 164.949 447.661 164.982 447.628 165.982ZM445.629 165.917 444.63 165.885 444.662 164.885 445.662 164.917 445.629 165.917ZM443.63 165.852 442.631 165.819 442.663 164.819 443.663 164.852 443.63 165.852ZM441.631 165.787 440.631 165.754 440.665 164.754 441.664 164.787 441.631 165.787ZM439.633 165.722 438.633 165.689 438.665 164.689 439.665 164.722 439.633 165.722ZM437.634 165.656 436.634 165.624 436.666 164.624 437.666 164.656 437.634 165.656ZM435.634 165.592 434.635 165.559 434.668 164.559 435.667 164.592 435.634 165.592ZM433.636 165.526 432.636 165.494 432.668 164.494 433.668 164.526 433.636 165.526ZM431.637 165.461 430.637 165.429 430.669 164.429 431.669 164.461 431.637 165.461ZM429.637 165.396 428.638 165.363 428.671 164.363 429.67 164.396 429.637 165.396ZM427.639 165.331 426.639 165.299 426.672 164.299 427.671 164.331 427.639 165.331ZM425.64 165.266 424.64 165.233 424.673 164.233 425.672 164.266 425.64 165.266ZM423.641 165.201 422.641 165.168 422.674 164.168 423.674 164.201 423.641 165.201ZM421.642 165.136 420.643 165.104 420.675 164.104 421.674 164.136 421.642 165.136ZM419.643 165.07 418.644 165.038 418.676 164.038 419.675 164.07 419.643 165.07ZM417.644 165.005 416.645 164.973 416.677 163.973 417.677 164.005 417.644 165.005ZM415.645 164.94 414.645 164.907 414.678 163.907 415.678 163.94 415.645 164.94ZM413.646 164.875 412.647 164.843 412.679 163.843 413.678 163.875 413.646 164.875ZM411.647 164.81 410.648 164.777 410.68 163.777 411.68 163.81 411.647 164.81ZM409.648 164.745 408.648 164.712 408.682 163.712 409.681 163.745 409.648 164.745ZM407.649 164.68 406.65 164.647 406.682 163.647 407.682 163.68 407.649 164.68ZM405.651 164.614 404.651 164.582 404.683 163.582 405.683 163.614 405.651 164.614ZM403.651 164.55 402.652 164.517 402.685 163.517 403.684 163.55 403.651 164.55ZM401.653 164.484 400.653 164.452 400.686 163.452 401.685 163.484 401.653 164.484ZM399.654 164.419 398.654 164.387 398.687 163.387 399.686 163.419 399.654 164.419ZM397.654 164.354 396.655 164.321 396.688 163.321 397.688 163.354 397.654 164.354ZM395.656 164.289 394.656 164.257 394.689 163.257 395.688 163.289 395.656 164.289ZM393.657 164.224 392.657 164.191 392.69 163.191 393.689 163.224 393.657 164.224ZM391.657 164.159 390.658 164.126 390.691 163.126 391.691 163.159 391.657 164.159ZM389.659 164.094 388.66 164.062 388.692 163.062 389.691 163.094 389.659 164.094ZM387.66 164.028 386.661 163.996 386.693 162.996 387.692 163.028 387.66 164.028ZM385.661 163.963 384.662 163.931 384.694 162.931 385.693 162.963 385.661 163.963ZM383.662 163.898 382.662 163.865 382.696 162.865 383.695 162.898 383.662 163.898ZM381.663 163.833 380.664 163.801 380.696 162.801 381.696 162.833 381.663 163.833ZM379.664 163.768 378.665 163.735 378.697 162.735 379.697 162.768 379.664 163.768ZM377.665 163.703 376.666 163.67 376.699 162.67 377.698 162.703 377.665 163.703ZM375.667 163.638 374.667 163.605 374.699 162.605 375.699 162.638 375.667 163.638ZM373.667 163.572 372.668 163.54 372.7 162.54 373.7 162.572 373.667 163.572ZM371.668 163.508 370.669 163.475 370.702 162.475 371.701 162.508 371.668 163.508ZM369.67 163.442 368.67 163.41 368.702 162.41 369.702 162.442 369.67 163.442ZM367.671 163.377 366.671 163.345 366.704 162.345 367.703 162.377 367.671 163.377ZM365.671 163.312 364.672 163.279 364.705 162.279 365.705 162.312 365.671 163.312ZM363.673 163.247 362.673 163.215 362.706 162.215 363.705 162.247 363.673 163.247Z" fill="#525761"/></g><g><path d="M356.432 162.51C359.304 161.55 362.884 159.867 365.129 158.035L363.255 162.733 364.819 167.541C362.699 165.567 359.235 163.655 356.432 162.51Z" fill="#525761"/></g></g><g><g><path d="M272.165 137.675 271.305 137.165 271.816 136.305 272.676 136.814 272.165 137.675ZM273.187 135.956 272.328 135.444 272.839 134.585 273.698 135.097 273.187 135.956ZM274.209 134.237 273.35 133.726 273.861 132.866 274.72 133.378 274.209 134.237ZM275.232 132.519 274.372 132.007 274.883 131.147 275.743 131.659 275.232 132.519ZM276.254 130.799 275.394 130.289 275.905 129.429 276.765 129.938 276.254 130.799ZM277.276 129.08 276.417 128.568 276.928 127.709 277.787 128.221 277.276 129.08ZM278.298 127.361 277.439 126.85 277.95 125.99 278.81 126.502 278.298 127.361ZM279.321 125.643 278.461 125.131 278.972 124.271 279.832 124.783 279.321 125.643ZM280.343 123.923 279.483 123.413 279.994 122.553 280.854 123.062 280.343 123.923ZM281.365 122.204 280.506 121.692 281.017 120.833 281.876 121.345 281.365 122.204ZM282.387 120.485 281.528 119.974 282.039 119.114 282.899 119.626 282.387 120.485ZM283.41 118.767 282.55 118.255 283.062 117.396 283.921 117.907 283.41 118.767ZM284.432 117.047 283.573 116.537 284.083 115.677 284.943 116.187 284.432 117.047ZM285.454 115.328 284.595 114.816 285.106 113.957 285.965 114.469 285.454 115.328ZM286.477 113.609 285.617 113.098 286.128 112.238 286.988 112.75 286.477 113.609ZM287.499 111.891 286.639 111.379 287.151 110.52 288.01 111.031 287.499 111.891ZM288.521 110.171 287.662 109.661 288.173 108.801 289.032 109.311 288.521 110.171ZM289.543 108.452 288.684 107.94 289.195 107.081 290.054 107.593 289.543 108.452ZM290.566 106.733 289.706 106.222 290.218 105.362 291.077 105.874 290.566 106.733ZM291.588 105.015 290.729 104.503 291.24 103.644 292.099 104.155 291.588 105.015ZM292.61 103.295 291.751 102.783 292.262 101.924 293.121 102.436 292.61 103.295ZM293.633 101.576 292.773 101.064 293.284 100.205 294.144 100.717 293.633 101.576ZM294.655 99.8574 293.795 99.3457 294.307 98.4863 295.166 98.998 294.655 99.8574ZM295.677 98.1387 294.818 97.627 295.329 96.7676 296.188 97.2793 295.677 98.1387ZM296.699 96.4189 295.84 95.9072 296.351 95.0479 297.21 95.5596 296.699 96.4189ZM297.722 94.7002 296.862 94.1885 297.373 93.3291 298.233 93.8408 297.722 94.7002ZM298.744 92.9814 297.885 92.4697 298.396 91.6104 299.255 92.1221 298.744 92.9814ZM299.766 91.2627 298.907 90.751 299.418 89.8916 300.277 90.4033 299.766 91.2627ZM300.788 89.543 299.929 89.0312 300.44 88.1719 301.3 88.6836 300.788 89.543ZM301.811 87.8242 300.951 87.3125 301.462 86.4531 302.322 86.9648 301.811 87.8242ZM302.833 86.1055 301.974 85.5938 302.485 84.7344 303.344 85.2461 302.833 86.1055ZM303.855 84.3867 302.996 83.875 303.507 83.0156 304.366 83.5273 303.855 84.3867ZM304.877 82.667 304.018 82.1553 304.529 81.2959 305.389 81.8076 304.877 82.667ZM305.9 80.9482 305.04 80.4365 305.552 79.5771 306.411 80.0889 305.9 80.9482ZM306.922 79.2295 306.063 78.7178 306.574 77.8584 307.433 78.3701 306.922 79.2295ZM307.944 77.5107 307.085 76.999 307.596 76.1396 308.456 76.6514 307.944 77.5107ZM308.967 75.791 308.107 75.2793 308.618 74.4199 309.478 74.9316 308.967 75.791ZM309.989 74.0723 309.129 73.5605 309.641 72.7012 310.5 73.2129 309.989 74.0723Z" fill="#525761"/></g><g><path d="M268.441 142.957C268.987 139.978 269.243 136.031 268.723 133.18L271.931 137.089 276.897 138.041C274.144 138.945 270.798 141.055 268.441 142.957Z" fill="#525761"/></g></g><g><g><rect x="385.639" y="254.337" width="48.8497" height="1.00062" fill="#525761" transform="matrix(0.616808 -0.787114 0.787114 0.616808 -43.4529 420.418)"/></g><g><path d="M391.292 278.826C393.872 277.239 397.458 275.572 400.304 275.025L395.499 273.449 392.814 269.164C392.968 272.057 392.212 275.94 391.292 278.826Z" fill="#525761"/></g><g><path d="M428.836 230.85C427.916 233.736 427.16 237.619 427.313 240.512L424.628 236.226 419.824 234.651C422.669 234.104 426.257 232.438 428.836 230.85Z" fill="#525761"/></g></g></g><g id="Layer_2"><path d="M798 2 798 368 2 368 2 2 798 2M800 0 0 0 0 370 800 370 800 0 800 0Z" fill="#BAC0CF"/></g></svg>